P2
# Created by GIMP version 2.10.30 PNM plug-in
20 20
255
255
255
255
255
255
255
255
255
255
255
255
255
255
248
229
194
156
118
81
56
255
255
255
255
255
255
255
255
255
255
255
255
255
250
236
210
170
131
93
61
255
255
255
255
255
255
255
255
255
255
255
255
255
253
242
222
192
154
110
77
255
255
255
255
255
255
255
255
255
255
255
255
255
253
248
235
205
170
132
98
255
255
255
255
255
255
255
255
255
255
255
255
254
254
251
248
240
214
146
113
255
255
255
255
255
255
255
255
255
253
251
246
240
236
227
218
205
210
162
129
255
255
255
255
255
255
255
255
253
248
240
231
221
211
200
193
187
208
173
148
255
255
255
255
255
255
255
254
248
239
224
209
193
175
165
155
171
197
200
179
255
255
255
255
255
255
255
252
242
228
209
188
161
125
110
144
168
212
223
210
255
255
255
255
255
253
251
248
236
218
195
166
131
111
129
155
180
203
236
231
255
255
255
255
253
247
243
238
231
216
187
157
133
129
152
178
197
220
239
246
255
255
255
255
251
236
229
228
229
214
188
164
152
157
184
201
219
235
246
253
255
255
255
254
251
231
210
224
230
214
191
179
178
192
211
226
236
245
251
254
255
255
255
255
253
237
226
228
234
219
204
198
206
224
237
241
246
250
250
250
255
255
255
255
254
246
239
239
241
233
218
219
232
245
250
251
251
247
239
240
255
255
255
255
255
253
251
251
250
246
242
242
248
254
255
255
252
240
223
210
255
255
255
255
255
255
255
255
255
255
254
254
255
255
255
255
253
232
189
190
255
255
255
255
255
255
255
255
255
255
255
255
255
255
255
255
252
235
177
135
255
255
255
255
255
255
255
255
255
255
255
255
255
255
255
255
253
242
222
173
255
255
255
255
255
255
255
255
255
255
255
255
255
255
255
255
254
250
239
230
