P2
# Created by GIMP version 2.10.30 PNM plug-in
20 20
255
255
255
255
255
255
255
255
255
255
255
255
255
255
248
229
194
156
118
81
56
255
255
255
255
255
255
255
255
255
255
255
255
255
250
236
210
170
131
93
61
255
255
255
255
255
255
255
255
255
255
255
255
255
253
242
222
192
154
110
77
255
255
255
255
255
255
255
255
255
255
255
255
255
253
248
235
205
170
132
98
255
255
255
255
255
255
255
255
255
255
255
255
254
254
252
249
241
214
146
113
255
255
255
255
255
255
255
255
255
253
251
246
240
236
227
218
205
210
162
129
255
255
255
255
255
255
255
255
253
248
240
231
221
211
200
193
187
209
173
148
255
255
255
255
255
255
255
254
248
239
224
209
193
178
166
149
167
197
200
179
255
255
255
255
255
255
255
252
242
228
209
189
166
142
130
138
164
215
224
210
255
255
255
255
255
253
251
248
236
218
196
170
145
130
130
155
177
202
236
231
255
255
255
255
253
247
243
238
231
216
192
170
155
148
159
177
197
220
239
246
255
255
255
255
251
236
229
228
229
221
208
192
183
182
190
201
219
235
246
253
255
255
255
254
251
231
202
224
232
231
225
218
213
212
215
226
236
245
251
254
255
255
255
255
253
237
225
228
238
240
239
237
235
235
237
241
246
250
250
250
255
255
255
255
254
246
239
239
246
249
249
249
248
248
250
251
251
247
239
240
255
255
255
255
255
253
251
251
254
255
255
255
255
255
255
255
252
240
223
210
255
255
255
255
255
255
255
255
255
255
255
255
255
255
255
255
253
232
189
190
255
255
255
255
255
255
255
255
255
255
255
255
255
255
255
255
252
235
177
135
255
255
255
255
255
255
255
255
255
255
255
255
255
255
255
255
253
242
222
173
255
255
255
255
255
255
255
255
255
255
255
255
255
255
255
255
254
250
239
230
